<?xml version="1.0" encoding="utf-8"?>
<!-- Generator: Adobe Illustrator 24.0.2, SVG Export Plug-In . SVG Version: 6.00 Build 0)  -->
<svg version="1.1" id="Layer_1" xmlns="http://www.w3.org/2000/svg" xmlns:xlink="http://www.w3.org/1999/xlink" x="0px" y="0px"
	 viewBox="0 0 684.8 150.3" style="enable-background:new 0 0 684.8 150.3;" xml:space="preserve">
<style type="text/css">
	.st0{fill:#FFFFFF;}
</style>
<path class="st0" d="M678.1,73c-6.1,2-13.8,5.5-20.1,1.6c-3.3-2.8-4.9-7.4-4.2-11c3.3-7,12.5-5.5,18.9-5.1c1.5,0.8,4.4-1.1,4.9,1.6
	c1.8,0.6,4,1,5.1,2.5c0.8,0.2,1.6,1.1,2,1.8C685.4,68.9,681,71.1,678.1,73"/>
<path class="st0" d="M678.1,107.9c-4.8-0.2-10.5-0.6-15.6-0.4c-1.8-0.6-3.5-1.1-5.3-1.7c-2.2-1.7-5-3.2-5.6-6.2
	c-1.1-0.9-1.1-2.4-1.6-3.5c1.1-1.5,0.2-2.7,1.4-4.1c2.3-3.7,6.6-1,10.1-1.2c6.4,2.3,12.4,6.2,17.7,10.7
	C679.6,103.7,679.7,106.2,678.1,107.9"/>
<path class="st0" d="M662,33.6c-3.5,6.6-9.2,13.6-17.5,12.5l-2.5-1.3c0.2-0.3,0.5-0.5,0.4-0.8c-0.2-0.7-0.9-0.3-1.4-0.4
	c0.2-2.2-2.8-2-2.4-4.3c-0.6-1.2,0-2.1,1-3.1c3.8-1.3,6.6-4.9,10.1-7c2.7-2,5.3-4.1,8.4-5.2c1.2,0.8,3.2,0.7,3.5,2.4
	c0.6-0.3,0.9,0.5,1.4,0.8c0.3,0.4,0,2.1,1.4,1.6C664.5,30.7,662.9,32,662,33.6"/>
<path class="st0" d="M649.2,140.9c-0.2,0.8-0.5,1.6-1,2.2c-3.4,0.3-6.1-1.2-8.8-2.4c-2.6-2-4.2-3.8-6.7-5.7c-3-5-9.3-10.6-4.9-16.7
	c2-0.3,2.4-3.2,4.5-3.1c2-1,3.6-3.1,6.1-2c1.6,0.8,2.6,2.5,4.3,3.7c4.4,5.7,6.5,12.4,8,19.3C649.3,137.7,650.3,139.7,649.2,140.9"/>
<path class="st0" d="M627.2,22.5c-1.1,3.2-3.7,6.6-6.9,7.7c-1.6,0.3-2.8,0.2-4.5,0.2c-0.2-1.2-1.4-0.1-2.2-0.3
	c-0.7-0.5-0.7-2.4-2-1.2c-0.7-0.9-1.7-1.2-2.1-2.1c2.4-8.1,1.6-18.4,8.4-24.6c2.2-0.3,3.8-3.3,6.3-1.6c4.2,2.9,3.7,8.4,4.5,13.1
	C629.1,17,627.4,19.5,627.2,22.5"/>
<path class="st0" d="M599.3,144.8c-0.3,2.2-2.3,4-3.5,5.5c-2.7,0-5.1,0.2-6.7-1.6c1.5-3.4-3-4.8-2.3-8c-1.3-6.3-1.7-14.4,3.5-18.9
	c1-0.7,2.2-1.5,3.5-1c0.8-0.9,1.7,0.2,2.5-0.7c1.6,0.5,2.8,1.1,4.3,1.7c3,5.5,1.1,12.9-1,18.1L599.3,144.8"/>
<path class="st0" d="M593.7,31.2c-1.3-0.2-1.5,1.8-2.6,1.4c-0.6,1.6-2.2-1-2.3,1.1c-0.8,0-1.4,0.2-2.2-0.2l-0.4,0.7
	c-0.5-0.9-1.8,0.2-2.1-1c-0.3,1-0.8-0.1-1.4,0.2c-3.5-5.4-4.3-11.9-6.6-17.7c-1.1-3.6-1.1-8.2,0.3-11.6c2-1.6,5.4-0.7,7.5-2.4
	c3.6-0.5,3.4,3.8,4.9,5.7C591,15.2,596.5,22.9,593.7,31.2"/>
<path class="st0" d="M554.7,131.6c-1.1-1.1-1.7,1.5-2.5,0.8l-3-0.2c-0.6-1,1.2-2,0-2.9h-1.1c-1.1-2.1-0.4-4.4,0.2-6.7
	c1.4-6.1,5.8-11.5,11.1-15.6c2.8-1.9,5.7-3.4,9.2-3.9c-0.1,0.7,0.9,1.1,1.4,1.6h1.2l-0.2,1.7c0.4,0.5,1,0,1.4-0.2
	c0.5,0.7-0.5,3.1,1.4,3.1c-0.4,0.3,0,0.9-0.4,1.2c0.6,0.2,0.2,0.8,0.6,1.1C568.2,119.1,561.6,125.7,554.7,131.6"/>
<path class="st0" d="M564.8,52.8c0.5,1.3-0.7,2.1-2,2c0.2,0.1,0.2,0.4,0.2,0.6c-0.8,1.1-2.1,0.8-3.1,1.6c-4.1,0.3-7.3-2.6-10.8-4.1
	c-3.2-2.5-9-4-7.9-9.3c2.2-2.1-0.7-6.3,3.5-7.1c6.8-1.9,11.9,3.7,17.7,5.9c2.5,1.4,4.2,3.4,4.9,6.1
	C566.5,49.9,567.3,53.1,564.8,52.8"/>
<path class="st0" d="M555.5,91.1c-4.3,2.6-10.4,1.1-15.3,1.4c-1.9-0.5-4.4-0.7-6.5-0.6c0.2-1.2-1.1-1-1.6-1.4
	c-1.4-0.3-1.2-2.5-2.3-3.4c0-2-0.3-4.2,1-5.7c6-3.3,12.5-6.4,19.2-8.6c2-1.1,3.7,0.3,5.5,0.7c1.2,1.1,0.7,3,2,4.2c1.8,1,1.3,3,2,4.9
	c-1.1,0.7,0.4,1.3,0.2,2.1c2.2,1.1-1.1,2-0.2,3.8C558.8,90.3,557.1,90.9,555.5,91.1"/>
<path class="st0" d="M396.3,113.1c-5-0.1-8,0.7-12.4,2.9c-5.1,2.5-10.8,7.5-12,13.8c0,0,4.8-4.7,13.9-2.6
	c6.3,1.4,16.1,9.1,25.6,12.4c2.3,0.8,13,4.5,18.4,2.9c2.8-0.4,1.9-2.3,2.5-3.3c0.7-1.1,8.3,1.8,8.3,0.1c0.8-0.8-3.8-3.9-2.8-4
	c0.1-0.4,5.5-2.7,8.2-4.7c2.5-1.7,4.5-4.2,5.7-5.7c-4.1,1.5-10.4,2.8-17.6,2.2c-6.9-0.6-12.6-2.3-16.3-4.3c-3.5-1.9-5.6-4.4-9.3-6.3
	C404.9,114.4,401.1,113.1,396.3,113.1"/>
<g>
	<path class="st0" d="M43.2,31C18.6,31,0,50,0,75.1c0,12.3,4.3,23.1,12.3,31.4c8.1,8.2,18.8,12.8,30.2,12.8c8.8,0,16.2-2.1,22.6-6.3
		l0.8-0.5V99.4l-2.8,2.5c-5.7,4.9-12.4,7.2-20.5,7.2c-17.7,0-31.6-14.9-31.6-33.9c0-19,13.9-33.8,31.6-33.8c8.1,0,13.9,2,20.6,7.3
		l2.8,2.2V37.6l-0.9-0.5C57.5,32.9,50.8,31,43.2,31z"/>
	<path class="st0" d="M144.3,92.4c0,10.3-4.6,16-13,16c-7.9,0-12.6-6.1-12.6-16.4V32.3h-11v59.8c0,6.6,0.4,12,4.8,17.8
		c4.7,6.2,11.3,9.4,19.1,9.4c14.3,0,23.6-10.6,23.6-26.9V32.3h-10.9V92.4z"/>
	<path class="st0" d="M221.4,91.9c11-8.9,15.5-17.2,15.5-28.2c0-17.9-14.8-31.4-34.4-31.4h-2.5V118h11.1V96.4
		c1.3,2.9,3.1,6.4,5.6,9.7c4.3,5.6,10,9.8,18.2,13.2l2.4,1v-12.1l-0.9-0.5C229.4,104.3,223.9,98.5,221.4,91.9z M225.7,63.8
		c0,6.7-3.2,12.4-9.9,17.4c-1.9,1.5-3.5,2.1-4.7,2.6V44.9C219.8,47.2,225.7,54.7,225.7,63.8z"/>
	<path class="st0" d="M408.9,31c-24.6,0-43.2,19-43.2,44.2c0,12.3,4.2,23.1,12.3,31.4c8.1,8.2,18.8,12.8,30.2,12.8
		c8.8,0,16.2-2.1,22.6-6.3l0.8-0.5V99.4l-2.8,2.5c-5.7,4.9-12.4,7.2-20.5,7.2c-17.7,0-31.6-14.9-31.6-33.9c0-19,13.9-33.8,31.6-33.8
		c8.1,0,13.9,2,20.6,7.3l2.8,2.2V37.6l-0.9-0.5C423.2,32.9,416.5,31,408.9,31z"/>
	<path class="st0" d="M634.7,41c-7.8-6.6-17.3-10-27.4-10c-13.3,0-25.1,5.7-33.2,16.1c-6.3,7.7-9.6,17.4-9.6,28.1
		c0,12.2,4.3,23.1,12.4,31.3c8.2,8.3,19.1,12.9,30.7,12.9c13.3,0,24.8-5.5,33.1-16c6.3-7.7,9.6-17.5,9.6-28.2
		C650.3,61.5,644.8,49.4,634.7,41z M639.5,75.1c0,19.3-13.8,33.9-32,33.9c-18,0-32.1-14.9-32.1-33.9c0-19.3,13.7-33.8,31.9-33.8
		C625.4,41.3,639.5,56.2,639.5,75.1z"/>
	<path class="st0" d="M304.9,30.4l-1.3,1.4c-18.9,20.4-27.3,44.6-27.3,78.4l0.1,7.9l10.2-0.1v-1.7c0-11.4,0.4-20.7,1.2-28.4h33.9
		c0.8,6.5,1.2,14.8,1.2,25.4v4.7h10.3l0.1-8.3c0-33.5-8.4-57.5-27.3-77.9L304.9,30.4z M320,77.1h-30.1c2.8-11.4,7.7-21.7,15-31.6
		C312.6,56.1,317.6,66.5,320,77.1z"/>
	<path class="st0" d="M497.6,30.4l-1.3,1.4C477.4,52.2,469,76.3,469,110.2l0.1,7.9l10.2-0.1v-1.7c0-11.3,0.4-20.6,1.2-28.4h33.9
		c0.8,6.4,1.2,14.8,1.2,25.4v4.7H526l0.1-8.3c0-33.5-8.4-57.5-27.3-77.9L497.6,30.4z M512.7,77.1h-30.1c2.8-11.4,7.7-21.7,15-31.6
		C505.3,56.1,510.2,66.5,512.7,77.1z"/>
</g>
</svg>
