<?xml version="1.0" encoding="UTF-8"?>
<svg width="150px" height="45px" viewBox="0 0 150 45" version="1.1" xmlns="http://www.w3.org/2000/svg" xmlns:xlink="http://www.w3.org/1999/xlink">
    <!-- Generator: Sketch 46.2 (44496) - http://www.bohemiancoding.com/sketch -->
    <title>Andreas kruizen</title>
    <desc>Created with Sketch.</desc>
    <defs></defs>
    <g id="Symbols" stroke="none" stroke-width="1" fill="none" fill-rule="evenodd">
        <g id="Footer-/-Footer" transform="translate(-645.000000, -220.000000)" fill="#FFFFFF">
            <path d="M707.102965,168 L720.189353,181.086388 L733.275741,168 L742,176.724259 L728.913612,189.810647 L742,202.897035 L732.880638,212.016397 L719.79425,198.930009 L707.102965,211.621294 L698.378706,202.897035 L711.086388,190.189353 L698,177.102965 L707.102965,168 Z M707.102965,220.345552 L720.189353,233.43194 L733.275741,220.345552 L742,229.069811 L728.913612,242.156199 L742,255.242587 L732.880638,264.361949 L719.79425,251.275561 L707.102965,263.966846 L698.378706,255.242587 L711.086388,242.534905 L698,229.448517 L707.102965,220.345552 Z M707.102965,272.691104 L720.189353,285.777492 L733.275741,272.691104 L742,281.415363 L728.913612,294.501751 L742,307.588139 L732.880638,316.707502 L719.79425,303.621114 L707.102965,316.312398 L698.378706,307.588139 L711.086388,294.880458 L698,281.79407 L707.102965,272.691104 Z" id="Andreas-kruizen" transform="translate(720.000000, 242.353751) rotate(90.000000) translate(-720.000000, -242.353751) "></path>
        </g>
    </g>
</svg>