<svg width="120" height="158" xmlns="http://www.w3.org/2000/svg">
  <g fill="none" fill-rule="evenodd">
    <path fill="#D50032" d="M0 0h120v158H0z"/>
    <path d="M60.9473651 21l1.7108403 4.9392921 5.2094319.106332-4.1531888 3.1590889 1.510872 5.0061783-4.2779554-2.9858707-4.2779554 2.9858707 1.5091629-5.0061783-4.1514797-3.1590889 5.2094319-.106332L60.9473651 21zm33.8168697 7.9200177l-.6631429 5.1862566 4.6129451 2.4284853-5.1222662.967278-.8767843 5.1553862-2.4987498-4.5894256-5.1564488.7563291 3.5772116-3.8022259-2.3090362-4.6854673 4.7103655 2.2364017 3.725906-3.6530181zm-58.9957904 1.8196489l-2.3124545 4.6854673 3.5755024 3.8039409-5.1564488-.7597591-2.5038772 4.5877105-.8716569-5.1553861-5.1188479-.9689931 4.6146542-2.4250552-.6614338-5.1879717 3.7241969 3.6547331 4.7103656-2.2346866zm-1.6578573 70.6455974c.0957114-.010291 2.3534737-.23153 4.6522551.28641 2.3124545.51794 5.4914385 1.637855 7.0108562 2.265557l.2461149.099472c4.2728279 1.773343 5.667479 2.083764 6.1221079 2.076904-.0051274-.142348-.143567-.463059-.8870391-1.149072-.1316031-.121767-.1982592-.288125-.1982592-.456198 0-.147493.0546922-.300131.1623674-.420183.234151-.250395.6221238-.26583.8733661-.032586.481975.444194 1.9467004 1.800784.9588226 2.955-.5486311.643137-1.8099699.53166-7.5030859-1.826509l-.2461149-.101186c-1.4783985-.612267-4.5685077-1.699597-6.8074696-2.203817-2.0971039-.473348-4.2335179-.264114-4.2557366-.260684-.3401171.032585-.6443425-.214379-.6785251-.553956-.0324735-.341291.2102231-.644852.5503402-.679152zm25.6318405-3.6890342c.0341826-.3412913.3366988-.5882559.6733977-.5539553.3196075.0343006.5554676.3035607.5554676.6174115 0 .0188654-.0017091.0394457-.0017091.0617412-.0068365.0617411-.1572401 1.4903627-.8289286 2.9361348-.3760089.81121-1.2357019 2.373604-1.8937174 3.550116.6819434-.257255 1.4083241-.51794 1.8150973-.627702l3.2832411-.8215c.3349897-.061741.5725589.126912.6528881.459629.0871657.331001-.0341827.655142-.3623358.742608l-3.2627315.819786c-.8135464.216094-3.2661497 1.197092-3.2900775 1.207382-.2409875.097757-.521285.030871-.6956164-.169788-.169204-.198944-.1982592-.487069-.0666561-.715168.0205095-.036016 2.08514-3.639298 2.7021364-4.970163.5828137-1.2485432.7178351-2.5228119.7195442-2.5365322zM48.0810255 110.552109c.0854565-.331001.4221554-.526514.7520177-.437333.0683653.017151 1.7279316.476779 2.9294509 1.773343.6990346.754614 1.276721 2.073474 1.4664345 2.932705.1504036.675723.2392784 1.953421.2409875 2.006587.0239279.341292-.2324418.637992-.5708498.662003-.3435354.022295-.6375059-.236675-.6597246-.577966-.0034183-.01372-.0854566-1.238253-.2153506-1.821364-.1504035-.694588-.6443424-1.792208-1.1673366-2.359884-.951986-1.029019-2.3295458-1.414901-2.3432188-1.418331-.3298623-.090897-.5247033-.430473-.4324102-.75976zm32.8187371-8.973047c.9348948-.999863 2.4850768-.740894 4.0284222-.312136 1.6356386.457914 3.5481564 1.123346 3.6284856 1.152502.3196075.113192.4905206.466489.3811362.788915-.1145118.322426-.4683019.492214-.7879095.380737-.0153821-.00686-1.955246-.682583-3.5515746-1.126776-1.5604368-.437333-2.397911-.447624-2.7841747-.046306-.0188004.036015-.0512739.123482-.0512739.336146 0 .480209.1674948 1.572684 1.0391517 4.01146.1914227.54538.3008071 1.154216.3008071 1.720177 0 .855801-.2512423 1.62242-.8648204 1.951706-.9229308.499075-2.2047792-.149207-2.9858521-1.047884.0051273.00686.0153821.01372.0222187.02058-1.3570502-1.401181-1.8988448-1.684161-2.0851401-1.740757-.2426966.317281-.7263808 1.504083-1.0972622 3.136793-.4512107 1.982577-1.0049692 3.925708-2.3415098 3.992595-.2751701.01372-.5417945-.094327-.7520177-.301846-.6751068-.670578-.7776547-2.69603-.7776547-3.930853 0-.404748.0102548-.725459.0153822-.883242.0068365-.080606.0068365-.166358.0068365-.257255 0-.977568-.2033866-2.44735-.4067732-2.96186-.3537901.126913-1.0664979.610552-1.4835259 1.06675-.208514.231529-2.1176135 2.349594-3.5447381 5.026759-1.3245766 2.483366-2.4987498 5.723062-2.5090045 5.755647-.116221.322426-.4717203.488784-.7913278.372162-.3196075-.116622-.4871024-.471634-.3708815-.79406.051274-.135487 1.2134832-3.352887 2.5824973-5.91686 1.4681437-2.752626 3.3584428-4.882696 3.725906-5.280583.0170913-.018866 1.7792055-1.848805 2.8935591-1.440627 1.0716252.389312 1.1365722 3.658163 1.1365722 4.357896 0 .077176-.0034182.123482-.0034182.126912-.0136731.253825-.0188005.51108-.0188005.76662 0 1.315429.1469853 2.575978.3486628 2.99959.1982592-.152637.5759772-.742608 1.0852983-2.973865.3110619-1.36002.9588226-3.690749 1.8287704-4.0389.7639816-.308706 1.6954581.250394 3.4438993 2.058038.0068365.008575.0136731.015435.0205096.024011.5400854.617411 1.2527932.891816 1.4732711.775194.1606583-.087467.4067732-.968993-.0205096-2.1678-1.1810097-3.325447-1.3861054-4.894702-.7332173-5.59958zm-8.0568444-.433903c.4084823-1.9654265 2.3244184-2.3736041 3.2764045-2.315293.3401171.0188653.5964868.3104207.5793955.6517121-.0205096.3412914-.3127711.6019759-.6528882.5831109-.1743313-.008575-1.707422-.048021-1.9945561 1.33258-.0974204.464773-.0444374.83179.1623675 1.123346.3366988.476779 1.0391518.687728 1.4049058.735748.546922.073747 1.6048742-.265829 1.7792056-.473348.1880044-.27269.4341193-.958703.546922-1.327435.104257-.327571.4460832-.51108.769109-.413323.3264441.101187.507612.447624.4136098.775195-.0358918.116622-.3572084 1.155931-.7212534 1.679016-.5024846.722028-2.1398322 1.09762-2.9499604.987858-.7315082-.097756-1.705713-.476779-2.2492167-1.246828-.4119006-.581396-.5332489-1.286274-.3640449-2.092339zM44.2286438 79.576917c.1640766-.2967005.5417946-.4030325.8374743-.2349593.2016774.1131921.3161892.322426.3161892.540235 0 .1029019-.0256369.2058039-.07862.3018456-.0444374.0788915-1.0647887 1.9036855-1.4869441 2.5125219-.3025163.4373331-1.0169331 1.9465613-1.3074854 2.6788799.4665928.1354876 1.3109036.3052757 2.0287387.4150378.3093528.0480209.5281216.3121358.5281216.6122664 0 .0308706-.0034183.0617411-.0068366.0943267-.0512739.3378613-.3674632.5693907-.704162.5179397-2.9773066-.4561985-3.2063301-.8437957-3.2063301-1.341155 0-.5831109 1.3314132-3.2139699 1.654439-3.6821737.3862636-.5625304 1.4134515-2.3941846 1.4254154-2.414765zm3.3379332-3.1968196c.2426966-.2401044.6340877-.2315293.8699478.0154353.1162209.1200523.1743313.2761202.1743313.430473 0 .1629281-.0649469.3241411-.1897135.4441933-.4341193.4218979-.8511473.8918167-1.0442792 1.1593616.090584.0445909.2170597.0908967.3589176.104617l.2666244.0154353c.9588226.0463058 2.7448647.1286274 2.7448647 1.3771707l.0136731.485354c.0068365.1680731.0153822.3464365.0153822.5265148 0 .698018-.1196392 1.4234766-.8545656 1.557249-.3896819.0720314-.8699478-.0806065-1.3775598-.2366744-.1521126-.0497359-.365754-.1149071-.534958-.1560679-.0307644.1903686-.0598196.4579136-.0871657.6928729-.0598196.5831109-.1350214 1.3102845-.3315715 2.1129194-.0581104.2435346-.0820383.5025044-.0820383.7546141 0 .7288886.194841 1.4097563.2973889 1.553819l.0632378.0823215c.2409875.322426.5315398.7048781.5315398 1.1147708 0 .0994718-.0153822.2023738-.0581104.3069907-.064947.1646431-.2426967.4510534-.7041621.5247998h.0034183l-.0393101.0137202c-.4033549.1423477-.8750751.212664-3.3464788-.1920835-.3366989-.0565961-.5623042-.375592-.507612-.7117383.0546922-.3361463.3708815-.5659606.7075803-.5110795 1.5775281.2606848 2.201361.2949855 2.488495.2846953-.0205095-.0291556-.1264757-.1697882-.1264757-.1697882-.3059345-.4081776-.5366672-1.3634504-.5366672-2.2998579 0-.3618717.0341827-.7220284.1110936-1.0444544.1743313-.7203135.2461149-1.4011812.3042253-1.9482764.0922931-.8986767.155531-1.4920778.6580155-1.7424724.4101915-.2075189.9178035-.049736 1.5570185.1509228.1777497.053166.4358285.1372025.6204147.1783633.0085456-.0771764.0102547-.1663581.0102547-.26583 0-.1783633-.0085456-.3721619-.013673-.5179396 0 0-.0102548-.3121358-.0136731-.4441933-.1469852-.0891817-.5452128-.1903685-1.5689824-.2401045l-.3332806-.0188653c-.7537268-.0737464-1.5553094-.5556704-1.5553094-1.2999943 0-.1903685 0-.6277017 1.5091629-2.0871939zm-4.9393892-3.2294052c.1726223-.270975.5349581-.593401 1.2750119-.593401 1.1314449 0 3.0542175.3310011 5.8059187 1.9054005 2.5448963 1.4612072 8.9336287 5.7470721 12.5347681 8.6763467 3.7105238 3.0150262 7.0194018 5.897995 8.6362399 7.5238453 2.083431 2.0871939 3.1601836 3.2242601 3.0405444 4.2481342-.1213483 1.0478845-.9058395 1.2999942-1.6014559 1.5212334l-.3931002.1337725c-.8511473.2984155-1.0459883.5728206-1.0459883.646567 0 .0891817.0734927.3704469.1213484.5728207.1897135.7340337.3999367 1.5641091-.0017092 2.1506501-.5845228.8643764-1.6202563.8352204-2.3073271.8163554-.2102231-.005145-.4700111-.012005-.5623041.01715-.104257.032586-.2905523.138918-.4734294.240105-.6187055.348151-1.6561481.932977-2.5090046.241819-.6204146-.509364-.7879095-1.250258-.7879095-1.9191207 0-.5316599.1059662-1.0135839.1674949-1.2948491l.2461149-1.0084388c.0769109-.2744051.1640766-.6174115.2033866-.8386506-.182877-.0788915-.4546289-.1800784-.6545972-.2521097-.9383131-.3447215-1.5262542-.5796809-1.80997-.9398376-.3691723-.4664887-.4768476-1.1250609-.4768476-1.7133169 0-.1783633.0119639-.3498665.0273461-.5059344.0495648-.533375.299098-1.6104151.3315715-1.7321823.0803291-.3310012.4101915-.5385201.743472-.4579136.2820067.0686013.4734294.322426.4734294.6019763 0 .0497359-.0102548.0960417-.0205096.1457777-.0683652.3052757-.2700427 1.1782269-.3059345 1.5538189-.0085456.1320575-.0153822.2606849-.0153822.3841672 0 .427043.076911.7751944.2016775.9415526.1606584.1474927.88533.4150377 1.2750119.5591004.8682386.3172809 1.2254471.4596285 1.3878145.7906297.0700744.1320575.0957114.2795502.0957114.4493384 0 .3344312-.1076753.7546141-.259788 1.3291498l-.2375692.9552728c-.0888748.4167527-.1367305.7649042-.1367305 1.0547446 0 .4493384.1093844.7528993.3315715.9346923.1982592.161213.7571451-.154353 1.1246083-.3601565.2529514-.1389176.4853932-.2744052.7161259-.3430064.2888432-.0908967.6135781-.0806065.9554044-.0720314.6118689.0171503 1.0562431.0068601 1.2562114-.2761201.0102548-.0308706.0205096-.0754614.0205096-.1354876 0-.2658299-.1264757-.754614-.1914227-1.0118688-.0854566-.3395764-.1623675-.6328468-.1623675-.8780964 0-.7717644.6289603-1.3823158 1.8663713-1.8162189l.4358284-.1440626c.7195443-.2315294.7263808-.2744052.7451812-.4836391.0051274-.0068601.0051274-.0171503.0051274-.0240104 0-.5076495-1.6168381-2.1266396-2.6901725-3.2053948-1.589492-1.5984098-4.8641873-4.4487929-8.5405285-7.4363786-3.5601203-2.894974-9.8599779-7.1259578-12.3724007-8.5631546-2.5107137-1.4406269-4.2112993-1.7441875-5.1923406-1.7441875-.1418579 0-.2102231.0205803-.2358601.0343006-.0017091.0137202-.0068365.0257255-.0068365.0480209 0 .106332.0358917.3069907.1657857.591686.1196392.2606849.8118373.857516 1.3826871 1.2536884.1726223.1200522.2649154.3138508.2649154.5110795 0 .1200523-.0358918.2435346-.1093844.3498665-.194841.2829803-.5776864.3515816-.8562747.157783-.3418263-.2349594-1.4818168-1.0633198-1.8031335-1.7544777-.2392783-.5196547-.4443741-1.2605485-.0769109-1.8367993zm17.5698687 18.182769c.0957113.588256.1452761.8986768.1452761 1.1096257 0 .0651712-.0017091.1217673-.013673.1732182-.0427283.2435346-.1862953.4493384-.6853616 1.1216309-.4802659.6551422-1.1416996 1.5486739-1.5006172 2.3204383l-.4597563 1.0444545c-.4443741 1.0255891-.7349264 1.7064568-1.2391201 2.0083024-.3742997.2263842-1.1707549.3858822-2.4372211.6225566l-1.1502453.2263842c-.5554676.125197-1.3450862.449338-1.9791739.711738-.5178667.214379-.820383.337862-1.0237696.382452-.3742997.082322-.8357651-.058311-1.6903307-.336146-.4529198-.147493-.9690774-.313851-1.3724324-.389312-1.2596297-.229814-1.5142902-.8849566-1.5142902-1.6069851 0-.0908967.0017091-.1817933.0102548-.27269-.0017092-.0051451-.0376009-.3515816-1.1382814-1.0873303-.182877-.1234823-1.823643-1.2605485-1.9518278-2.7423361-.0051274-.0600262-.0068365-.1217673-.0068365-.1800784 0-1.0255891.7503086-1.8813901 1.3074853-2.5142369l.3281532-.3858822c.0358918-.0445908.0495648-.0926117.0495648-.1406326 0-.1680731-.1640766-.3430064-.1862953-.3687319-.1110935-.1166221-.1743314-.27269-.1743314-.430473 0-.0891816.0205096-.1766483.0581105-.2589698.1076753-.2315293.3401171-.377307.5947776-.3601567l2.1825606.1372025c.3401171.0205804.5981959.3155659.5776863.6568573-.0205095.3412913-.3144801.6002612-.6528881.5779658 0 0-.5947776-.0360157-1.1775914-.0720314.0034183.0463059.0170913.0908967.0170913.1389176 0 .2864103-.0871657.589971-.3161892.8849565l-.3742998.4407632c-.4460832.5076495-.9981326 1.1370662-.9981326 1.6978817v.0686013c.0598196.6791526.8972939 1.4766425 1.4100332 1.8196489 1.1468271.7683343 1.6852034 1.4423419 1.6852034 2.1129194 0 .0291555 0 .0583111-.0017091.0891816-.0102548.0977568-.0136731.1749333-.0136731.2383895 0 .2469646.0837474.2623999.507612.3395763.4836841.0908967 1.0408609.2709751 1.5313815.428758.3589176.1166222.8955848.2915554 1.068207.2984156.1281849-.0360157.4939389-.1869385.7964552-.3121359.6751068-.2795502 1.5177085-.6259866 2.1740148-.7751944l1.1998101-.2366744c.6699795-.1251974 1.7945878-.3327162 2.0270296-.4664887.1726223-.1200523.4871024-.8523709.7383447-1.4371968l.4768476-1.07361c.4119006-.8883866 1.1143535-1.8419444 1.6270929-2.5348173.169204-.2280992.3640449-.4956442.4495015-.6277017-.0153822-.1749332-.0734926-.5470952-.1196392-.8386506-.0803291-.4870691-.1743314-1.0393094-.1982592-1.449202l.0051274-.9261173c.0068365-.1543529.013673-.3515816.013673-.5247998 0-.1251973-.0410191-.3584417-.1914226-.4270429-.2153506-.1423477-.6357969-.4184679-.6357969-.4184679-.4683019-.3532965-.7024529-.9072519-.6853616-1.3102844.0153822-.3550116.1350214-.7048781.1999684-.9312623.0632378-.2212392.2666245-.7340337.4272828-1.123346-.4221554-.3087057-1.2972306-.9484127-2.2133249-1.6172751.0922931 1.2999942.222187 3.0939176.222187 3.0939176.0017092.0137203.0017092.0308706.0017092.0445909 0 .1337725-.0444374.2641149-.1264757.3738769-.3760089.4990744-1.028897 1.3891759-1.1775914 1.660151-.4460833.8009199-1.1382814 1.3171446-2.0099383 1.4920778l-2.0201931.3687319c-.3298623.0137202-.6716885-.1715032-.7315081-.5059344-.0598196-.3395764.2495331-.6740076.5298306-.7151684l1.9808831-.3618717c.5178668-.104617.9024213-.3927423 1.1707549-.8798114.1965501-.3550116.8426016-1.2296779 1.1348631-1.6189902-.0307644-.4167528-.3828454-5.5412683-.3828454-5.5412683l1.589492 1.1902322 3.1516379 2.3032879c.1640766.1200523.2546606.3087058.2546606.5025044 0 .0806065-.0153822.162928-.051274.2401045-.1845861.4459083-.5041937 1.2279629-.5640133 1.4320517-.2307327.5436651-.0478556.862661.3025163 1.0976204.326444.2195241.6289602.4081776.6289602.4081776.3589176.2401045.428992.6671475.428992 1.2468283 0 .1749332-.0051274.3618717-.011964.5659605l-.0068365.8094951c.0188005.3447214.104257.8626611.1794588 1.3188596zm3.843836-27.6840461c1.6253838-.5848259 3.5464473-1.1970923 5.8366831-1.0684649 2.2030701.1234823 3.0798544.4218978 4.0694413.8283604.9366039.3875972 2.2885267 1.2073825 2.344928 1.2416832.2939706.1783633.3862637.5573854.2102232.8489408-.1777497.2949855-.5554677.3875972-.8494382.2092339-.0136731-.0068601-1.3262858-.80435-2.1774332-1.1525015-.8015825-.3310012-1.5023263-.6156965-3.6660864-.7391788-2.0595031-.1166221-3.7771799.428758-5.3529989.9981486-1.3963602.5007894-3.308878 1.4560622-5.5358759 2.7577715-2.0082292 1.1765119-4.3839215 2.4284852-5.7802817 3.0458967-1.2322836.5453802-4.0079126 1.5400987-4.8402595 1.5315236-.3435354-.0034301-.6152873-.2846953-.6101599-.6277017.0017092-.3412914.2837158-.6139815.6221238-.6122664.4358284.0068601 2.7893021-.7426089 4.3309384-1.4251916 1.3587593-.6002612 3.6848869-1.826509 5.6572243-2.9807256 1.5963285-.9346924 3.8882734-2.1883808 5.7409716-2.8555282zM28.2431397 82.42044L20 76.3286465l.8408925-3.0236014 10.2103498-.9827133-.7520177 2.7011753-2.1586327.1389176-.9656592 3.4729398 1.7655326 1.2794138-.6973256 2.5056617zm-2.0099382-7.1619735l-3.9104922.0891817-.0068365.0291555 3.2746953 2.2003861.6426334-2.3187233zm6.735686-3.219115c.2905523-.427043.5828137-1.3240047.6614338-1.7904934.1247665-.7477539.1948409-1.5332386-1.0835892-2.4336303l-6.8313974-4.6820373 1.4630163-2.0957691 7.4620668 5.1245155c1.6817851 1.1850871 2.3774015 2.7937871 1.093844 4.6751772-.2683336.3927423-.6187055.9089669-.6187055.9089669l-2.1466688.2932705zm6.8621617-10.833857l-2.0988131 1.5246635-2.6645355-9.9180299 2.5312233-1.8402293 8.6003481 5.6132996-2.2680171 1.6447157-1.7740781-1.2416832-2.9140687 2.1146344.5879411 2.1026292zm.7742364-5.3337494l-3.1174552-2.3753193-.0222188.0171503 1.1963919 3.7696403 1.9432821-1.4114713zm9.79674-5.9597361l-3.7703434-3.7627802 2.8901409-.7100232 2.3090362 2.6908852.8494382-3.4677947 2.7141003-.6654324-1.6356385 5.09193 4.1805349 4.1709577-2.9585061.7254585-2.6354803-2.9927308-.9451495 3.8725422-2.8115209.692873 1.8133882-5.6458853zm26.6299731 69.002596l-.0119639.005145.3366989 3.291147-.4922298.221239-2.1808514-2.462786-.0102548.005145 1.2784301 2.865819-.625542.281265-1.5313815-3.436924 1.0288969-.464774 1.9244818 2.217536.0085456-.005145-.352081-2.920699 1.0049691-.447623 1.5262542 3.435209-.625542.28298-1.2784302-2.867534zm3.830163.644852c.1589492.001715.4853933-.0343.7964552-.229814.2495331-.162928.3931001-.447623.1897135-.766619-.143567-.226384-.3384079-.243535-.7195442-.219524l-.3999367.022295c-.4238645.025726-.7827821-.096042-1.0408609-.505934-.3589175-.569391-.0803292-1.162792.4529198-1.500653.3366988-.212664.6272511-.27612.7349264-.306991l.2785884.505934c-.1743314.034301-.4101915.068602-.6785251.24182-.2956797.181793-.3452445.433903-.208514.651712.1521127.240105.3691723.228099.6084507.216094l.4631745-.02401c.5041937-.029156.8084191.061741 1.0870075.507649.4101915.648282.1452761 1.248543-.4580472 1.632711-.3161893.202373-.5913594.312135-.8135464.315565l-.2922615-.540235zm2.4679855-4.718053l-.6580155.5248-.3435354-.430473 1.8509891-1.476642.3401171.430473-.6528881.521369 1.9962652 2.515952-.5366672.430473-1.9962652-2.515952zm2.1586327-2.570832l1.4031967-1.394321.3845545.389312-.9075487.910682.7007438.711738.8614021-.859231.3845546.392742-.859693.855801.7793638.79063.9485678-.946698.3879728.392743-1.4373793 1.432051-2.6457351-2.675449zm-12.9774332 11.783984l-.4922298-.80435-1.2425383.348152-.0170913.944982-.6665612.185224.208514-3.965154.7229625-.204089 2.175724 3.303152-.6887799.192083zm-1.7416047-1.005009l.96395-.26926-.9229308-1.565824-.0119639.001715-.0290553 1.833369zm20.348916-11.255754l-2.9277417-2.356454.7332173-.917542c.417028-.52137.9348947-.686013 1.4698528-.253825.3811362.306991.4460832.751184.2324418 1.121631l.0153822.008575c.1008388-.094327.2495332-.176648.5981959-.049736l1.4202881.51451-.4546289.57282-1.1827188-.475064c-.2922615-.114907-.4768476-.03773-.6357968.162928l-.0974205.120053 1.2596297 1.011869-.4307011.540235zm-1.2220288-1.869385l.1743314-.217809c.2290236-.288126.2324418-.598546-.0615287-.838651-.3349897-.26926-.5605951-.161213-.8015826.142348l-.1760405.221239.8648204.692873zm4.0455135-1.88825l-3.1943662-1.974002.5144485-.836936c.6135781-.999863 1.4835259-1.198807 2.5380599-.54538 1.0750435.665432 1.2032283 1.630995.6545972 2.522812l-.5127394.833506zm-2.3859471-2.284423l2.3004906 1.420046.11793-.198943c.4067733-.660288.1435671-1.236538-.5554676-1.668726-.7024529-.433903-1.3331223-.413323-1.7398956.250394l-.1230574.197229zm5.7358443-3.948004l-.9297674-.137202-.5366672 1.176512.7058712.622556-.2854249.629417-2.8901409-2.716611.3144802-.686012 3.9173287.464773-.2956797.646567zm-1.8868809.687728l.4170281-.912397-1.7911695-.301845-.0051274.012005 1.3792688 1.202237zm.8870391-7.4483836l-.0068365.0120052 2.7209369 1.8659548-.1469853.5196547-3.283241.0823215-.0017092.0120052 3.0063618.8695212-.1914227.6620024-3.6045577-1.0444545.3093528-1.0873303 2.9294508-.0445908.0051274-.0102902-2.4526032-1.6172751.3025162-1.0547447 3.6062668 1.0444545-.1897136.6620023-3.0029435-.8712362zM25.4538376 86.119764h.3144802c0 19.667987 15.9479031 35.66752 35.5482196 35.66752 2.1278684 0 4.2574458-.188654 6.3340402-.564246l.0564014.312136c-2.0953949.377307-4.2454819.569391-6.3904416.569391-19.7746479 0-35.8626998-16.143596-35.8626998-35.984801zm35.8626998-35.669235v-.3172809c19.7746479 0 35.8592816 16.143596 35.8592816 35.9865159 0 2.1180645-.1828771 4.2429891-.5486312 6.3096026l-.3093527-.054881c.3606267-2.0511782.5435037-4.1538074.5435037-6.2547216 0-19.6679867-15.9444849-35.669235-35.5448014-35.669235zM23.0832727 86.119764h1.4613071c0 20.345424 16.4948252 36.900628 36.7719576 36.900628 2.201361 0 4.4078494-.197229 6.5579364-.586541l.2580788 1.442342c-2.2355436.404747-4.5291976.608836-6.8160152.608836-21.0804241 0-38.2332647-17.210346-38.2332647-38.365265zm38.2332647-36.9006279v-1.4663524c21.0821333 0 38.2315557 17.2120609 38.2315557 38.3669803 0 2.2621272-.1965501 4.5293994-.5879412 6.7349306l-1.4356702-.2555398c.3742998-2.1232096.5640133-4.3013002.5640133-6.4793908 0-20.3471393-16.4948251-36.9006279-36.7719576-36.9006279zM21.9108087 86.119764h.3161892c0 21.628268 17.5339769 39.222781 39.0895395 39.222781 2.3380915 0 4.6813104-.207519 6.9630005-.619126l.0529831.31042c-2.2970724.416753-4.6573825.625987-7.0159836.625987-21.7281848 0-39.4057287-17.736861-39.4057287-39.540062zm39.4057287-39.2244962v-.3155659c21.7281849 0 39.4057286 17.7368606 39.4057286 39.5400621 0 2.3324435-.203386 4.666602-.606741 6.9390194l-.3110623-.0565961c.3982273-2.251837.6016143-4.5688452.6016143-6.8824233 0-21.6282682-17.5356861-39.2244962-39.0895396-39.2244962zm18.0928628 13.948355c5.9563222 1.7493326 9.1780345 6.2547216 9.1780345 13.0976992 0 8.8495649-5.4640924 15.0322552-13.2867859 15.0322552-7.2672258 0-9.7540117-6.0763583-11.2392467-9.708796l-.4734293-1.1336361c-.3486628-.7854847-.8186739-1.2811289-1.4373794-1.5160883-1.2733027-.4802089-2.9226143.2846953-3.5430289.5728207-.3093528.1423476-.6751068.0068601-.8186739-.3018456-.1418578-.3104208-.0068365-.6774377.3025163-.8197853.7485994-.3464365 2.7380281-1.2691237 4.4915967-.6071213.9297674.3515815 1.6458934 1.0821851 2.1278684 2.1695154l.4905206 1.1679368c1.4544707 3.5604064 3.6558316 8.9404617 10.0992562 8.9404617 7.099731 0 12.0545023-5.6733258 12.0545023-13.7957172 0-5.6681807-2.319291-9.5047072-6.7527773-11.372377-.0290552 1.4646373-.0888748 4.3356008-.0974205 4.774649.5264124.3910273 1.693749 1.3171445 2.4338028 2.3993297.9827505 1.4269066 1.2066467 3.0493268 1.2186106 3.1179281.0034182.0274405.0034182.054881.0034182.0840366 0 .3035607-.222187.5693906-.5315398.6122664-.3401171.0463059-.6494698-.1903685-.6973255-.5299449-.0017091-.0137202-.2016775-1.4063262-1.0049691-2.5828381-.8272195-1.2039525-2.3774015-2.2621272-2.3893654-2.2724174-.1726223-.1183372-.2751702-.3172809-.273461-.5265148l.1452761-6.8018168z" fill="#FFFFFE"/>
  </g>
</svg>
